<?xml version="1.0" encoding="UTF-8" standalone="no"?>
<!-- Created with Inkscape (http://www.inkscape.org/) -->

<svg
   width="427.33942mm"
   height="436.36404mm"
   viewBox="0 0 427.33942 436.36404"
   version="1.1"
   id="svg5"
   inkscape:version="1.1 (c68e22c387, 2021-05-23)"
   sodipodi:docname="Computharp Logo.svg"
   xmlns:inkscape="http://www.inkscape.org/namespaces/inkscape"
   xmlns:sodipodi="http://sodipodi.sourceforge.net/DTD/sodipodi-0.dtd"
   xmlns="http://www.w3.org/2000/svg"
   xmlns:svg="http://www.w3.org/2000/svg">
  <sodipodi:namedview
     id="namedview7"
     pagecolor="#ffffff"
     bordercolor="#666666"
     borderopacity="1.0"
     inkscape:pageshadow="2"
     inkscape:pageopacity="0.0"
     inkscape:pagecheckerboard="0"
     inkscape:document-units="mm"
     showgrid="false"
     fit-margin-top="0"
     fit-margin-left="0"
     fit-margin-right="0"
     fit-margin-bottom="0"
     inkscape:zoom="0.17349362"
     inkscape:cx="-152.74337"
     inkscape:cy="8.6458512"
     inkscape:window-width="1920"
     inkscape:window-height="1051"
     inkscape:window-x="-9"
     inkscape:window-y="-9"
     inkscape:window-maximized="1"
     inkscape:current-layer="layer1" />
  <defs
     id="defs2" />
  <g
     inkscape:label="Layer 1"
     inkscape:groupmode="layer"
     id="layer1"
     transform="translate(-261.61738,383.45597)">
    <path
       style="fill:#000000;stroke-width:0.457239"
       d="m 358.13832,51.774891 c -5.32935,-1.899738 -8.72821,-4.841931 -9.80412,-8.486841 -0.31133,-1.054638 -0.95769,-2.559096 -1.43639,-3.343227 -1.3199,-2.162037 -1.16914,-5.799481 0.35799,-8.637224 4.42612,-8.224698 5.98006,-10.580685 7.9986,-12.127051 1.08649,-0.832311 4.04935,-3.587345 6.58415,-6.122299 2.5348,-2.534954 5.31254,-5.1867141 6.17273,-5.8928189 0.8602,-0.7061048 3.97834,-3.2780758 6.92917,-5.7154931 15.40981,-12.728654 14.79943,-12.272993 28.53283,-21.300122 3.55499,-2.336735 7.67015,-5.16449 9.1448,-6.283899 3.24018,-2.459624 12.27702,-8.168585 12.93022,-8.168585 0.25733,0 2.71942,-1.535582 5.47133,-3.412422 7.10891,-4.848394 14.73816,-9.655951 19.25846,-12.135691 2.13761,-1.172653 6.13955,-3.501456 8.89322,-5.175152 2.75367,-1.673679 6.4573,-3.588245 8.23031,-4.254585 1.773,-0.66634 5.58986,-2.288243 8.4819,-3.604229 8.63087,-3.927359 12.81142,-5.545841 15.31753,-5.930129 2.31982,-0.355723 11.59041,-3.29954 19.43268,-6.170757 6.36882,-2.331759 8.57413,-3.199463 15.91308,-6.261243 3.84828,-1.605503 9.30087,-3.652531 12.11684,-4.548975 2.81599,-0.896443 6.40162,-2.228432 7.96809,-2.959975 1.56648,-0.731543 3.01957,-1.330071 3.22911,-1.330071 0.20954,0 1.25168,-0.420683 2.31588,-0.93486 1.06419,-0.514159 5.47521,-2.062685 9.80224,-3.441161 4.32701,-1.378459 8.8961,-2.934865 10.1535,-3.45865 6.51352,-2.713231 18.86288,-6.337991 21.59768,-6.339291 0.56203,-2.5e-4 2.82537,-0.52891 5.02962,-1.17477 2.20427,-0.64587 5.44806,-1.44306 7.20844,-1.77155 1.76038,-0.32847 4.94961,-0.92236 7.08722,-1.31975 2.1376,-0.39739 6.047,-0.94229 8.68756,-1.21088 5.42081,-0.55142 6.43587,-0.72856 18.5182,-3.2314 4.77816,-0.98978 9.03923,-2.00389 9.46903,-2.25356 4.19097,-2.4345 33.01572,-4.61169 36.48367,-2.75569 0.46985,0.25145 1.2793,0.45718 1.7988,0.45718 0.51949,0 0.94434,0.25719 0.94412,0.57155 -2.8e-4,0.3994 -0.99877,0.58871 -3.31499,0.62853 -1.82301,0.0313 -5.16639,0.50466 -7.42973,1.0518 -4.40222,1.06422 -11.49956,2.25208 -22.17612,3.71155 -7.76069,1.0609 -8.87578,1.38064 -11.7788,3.37757 -1.19669,0.82317 -2.7911,1.60664 -3.54314,1.74106 -0.75202,0.13445 -1.98459,0.46058 -2.73905,0.72485 -1.77831,0.62293 -5.84987,1.73636 -8.45893,2.3132 -1.13166,0.25022 -4.42378,1.0808 -7.31583,1.84575 -7.59095,2.0078 -9.00875,2.323723 -10.42853,2.323723 -0.69883,0 -3.01067,0.50201 -5.13738,1.115573 -7.09782,2.047771 -10.9269,2.999584 -12.06705,2.999584 -0.62142,0 -3.37172,0.918201 -6.11176,2.040444 -2.74005,1.122243 -10.72289,3.984354 -17.73968,6.360266 -7.01677,2.375895 -17.28445,5.8984 -22.81706,7.827811 -5.53258,1.929393 -11.08743,3.822771 -12.34409,4.207492 -1.25664,0.384738 -4.44589,1.57412 -7.08721,2.643084 -2.64132,1.068947 -5.62542,2.209561 -6.63136,2.534695 -1.00592,0.325117 -4.60472,1.696266 -7.99732,3.046988 -3.3926,1.350739 -6.99338,2.582201 -8.0017,2.736612 -1.00832,0.154323 -2.55346,0.635112 -3.43366,1.068238 -0.88018,0.433126 -2.732,1.151639 -4.11516,1.59669 -2.72063,0.875411 -14.25459,6.509249 -19.43268,9.492002 -20.48528,11.80024 -65.25327,39.928438 -76.58765,48.1208017 -2.1376,1.5450352 -7.79594,5.5591819 -12.57409,8.9203299 -20.93954,14.7297474 -35.21558,28.8174014 -32.48785,32.0591344 1.08353,1.287696 1.79181,3.382231 1.53176,4.529723 -0.33746,1.489043 4.08654,2.377675 10.60892,2.130964 8.97437,-0.339443 16.67916,-2.069407 38.17952,-8.572436 4.0237,-1.217032 11.43098,-3.363722 16.46063,-4.770437 9.3528,-2.615831 11.28383,-3.226023 18.06096,-5.70699 2.1376,-0.782541 4.81245,-1.747834 5.94411,-2.145118 13.8524,-4.863031 39.19653,-17.074018 38.7356,-18.6631037 -2.02833,-6.9927341 -29.22934,-2.0482206 -59.52695,10.8206037 -10.40872,4.421074 -13.92571,5.133556 -14.34959,2.906973 -0.77572,-4.074649 11.09365,-11.0200669 28.96821,-16.950922 28.04107,-9.304152 39.46343,-10.405571 48.42629,-4.6695994 12.41017,7.9421624 8.18832,14.0876194 -17.62056,25.6489774 -5.6886,2.548278 -9.40841,4.083514 -22.3468,9.222911 -4.16359,1.653857 -12.93582,4.515846 -21.03301,6.862121 -4.90391,1.420971 -14.06013,4.101591 -20.34717,5.95695 -27.48858,8.112091 -42.91309,10.432219 -50.75959,7.635226 z M 504.07986,-54.159164 c -0.3265,-0.85082 0.7476,-1.727631 1.67867,-1.370336 0.40018,0.153633 1.30073,-0.116477 2.00124,-0.599945 0.70049,-0.483519 2.44865,-1.346384 3.88479,-1.917468 1.43615,-0.571067 2.87644,-1.358931 3.20067,-1.750806 0.70803,-0.855677 7.4128,-3.996088 10.04484,-4.704819 1.03186,-0.277852 2.61867,-0.972932 3.52624,-1.544621 0.90755,-0.571689 4.6336,-2.117018 8.28008,-3.434093 3.6465,-1.317058 9.5106,-3.433851 13.03134,-4.70399 3.52075,-1.270138 8.04743,-2.769308 10.05927,-3.331493 2.01186,-0.562167 6.33277,-2.038508 9.60203,-3.280737 3.26927,-1.242229 8.41322,-2.938304 11.43101,-3.76906 3.01778,-0.830739 6.45144,-1.795185 7.63037,-2.1432 1.17891,-0.347998 2.88663,-0.632728 3.79493,-0.632728 0.90828,0 2.22198,-0.295047 2.91933,-0.65566 1.81058,-0.936294 15.0217,-3.016589 21.23032,-3.343054 4.52929,-0.238173 4.89075,0.03871 4.89075,3.74637 0,4.24724 -4.959,6.88018 -11.19668,5.944784 -1.32107,-0.198098 -2.83804,-0.0035 -4.87952,0.627543 -1.62937,0.503255 -3.97705,1.046516 -5.21706,1.207251 -3.08546,0.399946 -10.16609,2.057812 -11.93706,2.794972 -0.7987,0.332444 -3.37067,1.129017 -5.71549,1.770144 -2.34484,0.641143 -5.90939,1.803739 -7.92125,2.583566 -2.01186,0.779828 -5.61262,2.001768 -8.0017,2.715425 -2.38908,0.713657 -8.1503,2.661023 -12.80271,4.327478 -15.14773,5.425786 -21.65745,7.544515 -23.18016,7.544515 -0.82254,0 -3.81375,0.647624 -6.6471,1.439169 -2.83337,0.791544 -6.59189,1.60851 -8.35225,1.815473 -1.76038,0.206963 -4.02372,0.583216 -5.02964,0.836114 -2.75958,0.6938 -6.02734,0.605561 -6.32526,-0.170742 z m -71.9775,-2.105422 c -0.56607,-0.227528 -1.32336,-1.088959 -1.68283,-1.914289 -8.93549,-20.514678 -9.6632,-21.471658 -16.43238,-21.609202 -6.06919,-0.123217 -5.29083,-4.740695 1.35404,-8.032406 2.17381,-1.076845 4.49397,-2.409681 5.1559,-2.961824 0.66194,-0.552144 1.92368,-1.371478 2.80386,-1.820727 0.8802,-0.449268 3.53175,-2.124277 5.89237,-3.722245 2.3606,-1.597986 4.73155,-2.905418 5.26875,-2.905418 2.29102,0 14.32192,-6.518603 18.41542,-9.977853 2.33847,-1.97614 2.33847,-1.97614 0.25776,-3.88652 -2.0695,-1.9001 -3.74242,-4.76807 -3.7616,-6.44868 -0.005,-0.48421 -0.71373,-2.33603 -1.57381,-4.11516 -0.86008,-1.77913 -2.32189,-5.18949 -3.24847,-7.57856 -1.52127,-3.92241 -2.99805,-7.20481 -7.13811,-15.86566 -0.74518,-1.55888 -1.76356,-4.30912 -2.26308,-6.11169 -0.4995,-1.80256 -1.81314,-5.25955 -2.91916,-7.68219 -1.10603,-2.42266 -2.15436,-5.02209 -2.32961,-5.77654 -0.17527,-0.75445 -1.1947,-3.53218 -2.26541,-6.17274 -1.07071,-2.64056 -2.09279,-5.52116 -2.27129,-6.40136 -0.17852,-0.88018 -0.62155,-2.0691 -0.98455,-2.64203 -0.70704,-1.11601 -0.49415,-1.93036 0.50467,-1.93036 0.73141,0 2.62847,3.14421 3.44844,5.71549 0.84123,2.63793 3.08081,7.32561 5.09374,10.66174 0.95862,1.58875 2.57867,5.15984 3.60013,7.93575 2.65774,7.22271 4.59572,10.81485 7.38103,13.68117 2.14294,2.20528 2.71579,3.23415 4.69667,8.43569 1.24083,3.25825 2.93872,7.09105 3.77308,8.51732 0.83437,1.42626 1.93902,3.57766 2.45479,4.78088 0.51577,1.20322 1.75654,3.38721 2.75728,4.8533 1.00075,1.46611 1.93729,3.25432 2.08119,3.97381 0.26163,1.30818 0.26163,1.30818 3.30029,0.0138 8.62991,-3.67431 15.99841,-5.7776 20.64237,-5.89223 1.38314,-0.0342 3.0292,-0.10749 3.65792,-0.16314 1.90929,-0.16884 1.48184,1.46787 -0.5674,2.17237 -0.94077,0.32342 -2.27821,0.97031 -2.97206,1.43751 -3.18781,2.14652 -10.88302,5.91712 -12.92119,6.33129 -2.57518,0.5233 -11.59669,5.01652 -13.53608,6.74173 -4.36815,3.88577 -11.60414,7.89452 -16.64832,9.223208 -1.63825,0.431537 -3.92152,1.443593 -5.07392,2.249015 -6.67396,4.664501 -7.77954,5.400347 -8.73185,5.81163 -1.48302,0.640504 -5.59489,3.654467 -4.9857,3.654467 1.73655,0 6.84956,6.550846 8.35106,10.699494 3.34178,9.233281 4.22426,10.047533 7.5632,6.978443 1.46035,-1.342341 4.09549,-3.305484 5.85587,-4.362542 1.76036,-1.057075 4.05704,-2.479325 5.10371,-3.160579 15.07762,-9.813628 24.7258,-14.726965 30.73489,-15.651768 8.96954,-1.380411 8.92046,-1.317126 5.97124,-7.700014 -2.21784,-4.800024 -1.3426,-7.836054 2.259,-7.836054 2.79686,0 4.19144,1.52577 4.80619,5.258259 0.41953,2.547276 2.09831,6.092351 3.59321,7.587892 2.27374,2.274678 0.923,6.357916 -2.10323,6.357916 -0.6138,0 -2.5264,0.595036 -4.25025,1.322294 -1.76145,0.743139 -5.1882,1.64328 -7.82363,2.055116 -3.93995,0.615688 -5.47448,1.12487 -9.60203,3.186138 -2.70196,1.349357 -5.73568,2.716168 -6.7416,3.037379 -4.19703,1.34018 -14.09534,7.452923 -22.63337,13.977363 -1.38314,1.056937 -3.33785,2.292115 -4.34377,2.744821 -1.00593,0.452689 -2.50484,1.402324 -3.33091,2.110278 -1.60072,1.37184 -2.02309,1.466405 -3.64246,0.815531 z M 370.0666,-102.93906 c -0.73571,-0.20386 -2.27889,-1.26627 -3.4293,-2.36095 -1.1504,-1.09466 -2.88076,-2.56694 -3.84522,-3.27172 -1.99007,-1.45422 -3.50044,-3.67202 -3.50296,-5.14366 -0.003,-1.47211 -1.06617,-2.28327 -3.46577,-2.6431 -4.7749,-0.71605 -5.79088,-7.56315 -1.12223,-7.56315 0.34209,0 2.90941,-1.30933 5.70518,-2.90963 2.79576,-1.60029 5.49427,-3.0401 5.99666,-3.19955 0.50241,-0.15951 2.03897,-1.018 3.41462,-1.9079 1.37564,-0.88991 3.54768,-2.13262 4.82677,-2.7616 2.32562,-1.1436 2.32562,-1.1436 1.29718,-3.29847 -0.56564,-1.18516 -1.17491,-2.94141 -1.35395,-3.90273 -0.17904,-0.96133 -0.8874,-3.32755 -1.57419,-5.25826 -5.73355,-16.11878 -4.6274,-15.02827 -11.90242,-11.7341 -3.14057,1.42206 -11.05982,4.916 -17.59834,7.7643 -11.80629,5.14303 -14.57512,6.35767 -18.51094,8.12044 -13.2048,5.91414 -22.88128,12.53422 -22.85949,15.6391 0.0216,3.07507 6.483,5.30894 10.78661,3.72921 1.86858,-0.68589 1.71265,0.99044 -0.18053,1.94111 -2.08657,1.04779 -8.75035,2.11613 -10.48597,1.68112 -7.56188,-1.89527 -9.68994,-7.55958 -4.79233,-12.75585 1.23315,-1.30835 1.23315,-1.30835 -0.25286,-0.99246 -1.30142,0.27666 -1.48604,0.19777 -1.48604,-0.6349 0,-0.67219 0.29213,-0.95082 0.99688,-0.95082 0.63546,0 2.27449,-1.28475 4.52081,-3.5436 6.14858,-6.18294 9.37792,-8.73264 13.22914,-10.44499 0.88018,-0.39134 4.9423,-2.3422 9.02692,-4.33522 4.08462,-1.99304 7.63946,-3.62369 7.89965,-3.62369 0.26019,0 2.77807,-1.13965 5.59527,-2.53253 2.81719,-1.39288 6.24296,-2.85833 7.61279,-3.25655 1.36984,-0.39822 4.35995,-1.80327 6.64472,-3.12232 2.28477,-1.31906 5.59207,-3.15325 7.34955,-4.07598 1.75747,-0.92272 4.53283,-2.50177 6.16747,-3.50895 1.63462,-1.0072 6.3133,-3.4985 10.39704,-5.53622 4.08373,-2.03771 8.19889,-4.3661 9.14479,-5.17415 1.74704,-1.49246 6.71121,-4.80009 7.20411,-4.80009 0.14845,0 2.53015,-1.44031 5.29258,-3.20067 2.76243,-1.76038 5.1563,-3.20069 5.31969,-3.20069 0.16331,0 2.57548,-1.42944 5.36021,-3.17656 6.07545,-3.81168 12.00348,-7.33158 15.1224,-8.97925 4.07045,-2.15035 16.38384,-10.23173 19.20406,-12.60379 1.50889,-1.26912 5.41829,-4.11331 8.68755,-6.3204 3.26926,-2.20711 8.31035,-5.78398 11.20237,-7.94861 2.89204,-2.16464 6.49282,-4.5904 8.0017,-5.39056 4.84096,-2.56721 16.46348,-10.93192 23.31922,-16.78285 2.01186,-1.71698 7.67021,-6.47097 12.57411,-10.56444 14.26864,-11.91054 40.84131,-37.09427 48.53104,-45.99431 1.09667,-1.26927 3.59463,-3.63549 5.55101,-5.25826 3.94893,-3.27553 7.74403,-7.64442 9.45381,-10.88318 0.61747,-1.16963 3.07309,-4.02165 5.45695,-6.33783 4.06737,-3.9519 6.56119,-7.30315 9.45562,-12.70662 1.08162,-2.01919 3.64244,-5.69353 7.48884,-10.74514 1.68475,-2.21265 3.65524,-5.8179 4.37342,-8.0017 0.33082,-1.00592 1.23805,-3.34597 2.01605,-5.20012 0.77799,-1.85413 1.53967,-4.15371 1.69263,-5.11019 0.64388,-4.02659 5.80213,-6.51003 8.31087,-4.00129 2.64327,2.64327 -2.6,19.18141 -8.46125,26.6881 -0.96846,1.24034 -2.78146,3.69547 -4.02889,5.45585 -1.24741,1.76038 -2.9367,4.12658 -3.75395,5.25826 -0.81725,1.13166 -1.88483,2.77773 -2.37241,3.65791 -0.48756,0.8802 -2.98192,3.65792 -5.54299,6.17274 -3.32765,3.26754 -4.97026,5.26571 -5.75596,7.00183 -1.76132,3.89191 -4.11566,6.57555 -14.91231,16.9981 -5.598,5.40401 -11.30985,11.04165 -12.69301,12.52806 -4.41775,4.74759 -9.28854,9.60487 -11.28488,11.25356 -1.06579,0.88018 -5.70126,5.12619 -10.30106,9.43556 -4.59978,4.30938 -12.27264,11.06211 -17.05081,15.00606 -4.77816,3.94395 -10.11019,8.44265 -11.84899,9.99713 -1.73881,1.55445 -4.44333,3.75219 -6.01007,4.88387 -1.56674,1.13166 -5.22517,3.86132 -8.12982,6.06593 -2.90468,2.2046 -7.53733,5.33944 -10.2948,6.96632 -2.75745,1.62688 -7.12167,4.52688 -9.69824,6.44441 -2.57657,1.91754 -7.27622,5.22093 -10.44368,7.34086 -3.16743,2.11992 -8.25858,5.74936 -11.31364,8.06543 -3.05506,2.31606 -7.89037,5.70296 -10.74514,7.52642 -5.74793,3.67147 -5.01574,4.29082 1.87854,1.58907 1.62461,-0.63667 3.57933,-1.31537 4.34377,-1.50823 0.76447,-0.19286 3.03598,-1.00295 5.04784,-1.8002 4.48607,-1.77769 11.69315,-4.07022 14.22031,-4.52339 1.03115,-0.1849 3.55819,-1.19651 5.6156,-2.24802 2.05744,-1.05151 4.27009,-1.91183 4.91699,-1.91183 1.50304,0 7.91947,-2.81006 7.93101,-3.47336 0.005,-0.27571 -0.30353,-1.12725 -0.68519,-1.8923 -1.80507,-3.61834 2.88978,-6.43558 5.10093,-3.06094 0.60074,0.91686 0.6652,1.47201 0.30656,2.64056 -0.50599,1.64864 -0.18571,1.57511 12.94055,-2.97105 2.79404,-0.96768 5.73938,-1.75943 6.54522,-1.75943 0.80585,0 2.42922,-0.3944 3.60751,-0.87645 3.79256,-1.55158 18.0316,-5.45497 21.80365,-5.9771 8.28631,-1.14699 8.90604,-1.34391 8.40192,-2.66983 -0.24714,-0.65005 -0.95903,-3.14556 -1.58196,-5.5456 -0.62295,-2.40004 -1.44256,-5.08386 -1.82135,-5.96404 -0.9073,-2.10822 -2.34819,-7.95122 -2.12552,-8.61925 0.90624,-2.71874 4.5108,3.59901 6.48291,11.36269 0.53251,2.09638 2.69578,7.72398 3.20698,8.34278 0.15501,0.18759 1.81551,0.0454 3.69005,-0.3158 4.69535,-0.90496 9.95995,-1.66255 14.83928,-2.13544 7.47765,-0.72472 15.81266,-2.14702 18.2606,-3.11606 0.7385,-0.29235 2.64343,-0.61731 4.23315,-0.72214 1.58971,-0.1049 3.8643,-0.52127 5.05462,-0.92539 1.19031,-0.40411 3.50344,-0.74162 5.14026,-0.75002 8.49081,-0.0435 9.21702,-0.5186 7.44364,-4.86988 -1.89557,-4.65114 -9.96358,-27.96369 -12.60805,-36.431 -0.62833,-2.01186 -1.87633,-5.65397 -2.77335,-8.0936 -1.81715,-4.94215 -4.86096,-16.19353 -4.86096,-17.96844 0,-0.63086 -0.4115,-1.91484 -0.91446,-2.85326 -1.1536,-2.15236 -1.14796,-2.89996 0.0332,-4.40153 2.12025,-2.69549 5.40202,-1.11502 5.76749,2.77751 0.11302,1.20475 0.48568,2.91061 0.82796,3.79079 0.34227,0.8802 1.3732,4.06944 2.29097,7.08723 0.91777,3.01778 2.30312,6.82429 3.07856,8.45893 0.77546,1.63462 2.59276,6.57281 4.03848,10.97375 4.34473,13.22593 7.19958,21.11951 8.59915,23.77646 2.81395,5.34204 6.27079,12.30508 7.21472,14.53249 1.14899,2.71137 1.96264,2.92263 8.61519,2.23701 2.01186,-0.20735 8.69899,-0.21986 14.86029,-0.0278 6.16131,0.19207 12.75444,0.29863 14.65141,0.23681 4.70188,-0.15328 5.92436,0.73061 5.92436,4.28314 0,4.31959 -1.96112,5.05314 -9.21866,3.44816 -3.31264,-0.73258 -4.47181,-0.79907 -7.08721,-0.40652 -1.71975,0.25812 -4.25848,0.41072 -5.64163,0.3391 -4.91872,-0.25462 -14.89014,0.15467 -15.36618,0.63065 -0.15087,0.15087 0.24899,1.88206 0.8887,3.847 0.63969,1.96493 1.59308,5.05607 2.11866,6.86919 0.52557,1.81311 1.1551,3.41989 1.39894,3.57059 2.66204,1.64523 -0.0155,7.07864 -3.48725,7.07864 -4.50211,0 -5.57828,-1.69477 -8.44426,-13.29807 -1.73515,-7.02496 -2.43583,-7.73404 -7.64864,-7.74028 -4.87113,-0.005 -13.63189,1.05297 -17.2817,2.08863 -1.27953,0.36307 -3.60451,0.66014 -5.16665,0.66014 -1.57407,0 -3.40629,0.29269 -4.10994,0.65655 -1.65419,0.85542 -8.63432,2.06848 -10.19054,1.77098 -0.66579,-0.12719 -2.31022,0.0795 -3.65431,0.45936 -1.3441,0.3799 -3.57547,0.82365 -4.95862,0.98611 -9.94733,1.1683 -12.02287,2.3052 -10.3251,5.65562 0.64252,1.26794 1.60483,3.89678 2.13844,5.84187 0.53364,1.94508 2.5981,6.90166 4.58771,11.01464 1.98962,4.11298 4.40267,9.8896 5.36232,12.83694 2.41019,7.40215 5.84177,15.35665 7.6428,17.71611 1.95334,2.55903 2.63278,3.91326 3.77915,7.53261 1.07851,3.40508 6.3545,17.40603 6.68286,17.73441 0.21134,0.21132 11.84199,-1.7184 16.48237,-2.73471 1.25742,-0.2754 2.86783,-0.98525 3.57869,-1.57747 1.69754,-1.41422 3.93918,-1.4221 5.25779,-0.0185 1.99067,2.11899 0.84247,5.44699 -2.08055,6.03034 -0.69799,0.13929 -1.88631,0.465 -2.64077,0.72377 -0.75444,0.25877 -3.12066,0.98584 -5.25826,1.61568 -10.11695,2.98101 -11.1878,3.70982 -11.33758,7.71623 -0.24813,6.63727 -7.04501,7.25539 -8.75927,0.79657 -0.44176,-1.66447 -0.63596,-1.8856 -1.32979,-1.51426 -0.92603,0.4956 -10.39989,3.01053 -12.96717,3.44227 -0.93566,0.15726 -2.33411,0.81864 -3.10769,1.46955 -0.8655,0.72829 -2.17195,1.26976 -3.39673,1.4078 -1.99027,0.22433 -1.99027,0.22433 -1.35042,1.75572 0.35192,0.84224 0.64074,2.10381 0.64183,2.80345 9.2e-4,0.69966 0.51115,2.71242 1.13346,4.47278 0.62231,1.76038 1.13581,3.85469 1.14111,4.65405 0.0187,2.81944 1.92566,3.56438 5.04746,1.97175 0.99041,-0.50526 3.19898,-1.21278 4.90797,-1.57229 1.70898,-0.35949 4.33691,-1.26127 5.83983,-2.00393 3.63465,-1.79606 14.84267,-5.78812 20.00512,-7.12542 4.13895,-1.07216 4.13895,-1.07216 4.03676,-4.22265 -0.12373,-3.81415 0.94898,-5.28152 3.86092,-5.28152 2.64115,0 4.00077,1.63266 3.93119,4.72067 -0.0366,1.62271 0.24695,3.00824 0.85378,4.17244 2.44379,4.68851 -0.0517,8.06186 -5.49647,7.42993 -3.21916,-0.37363 -7.91434,0.80844 -17.82874,4.48859 -3.89839,1.44705 -8.21648,2.70588 -10.48067,3.05535 -4.41962,0.68219 -7.98069,1.87262 -9.36512,3.1307 -5.06701,4.60452 -11.71212,0.9218 -13.29864,-7.37011 -1.2602,-6.58652 -2.33875,-9.83526 -3.82852,-11.53201 -3.24566,-3.69662 -1.02834,-8.79935 4.17578,-9.60968 0.94844,-0.14758 2.38873,-0.84793 3.20069,-1.55611 1.54133,-1.34438 6.13718,-3.69693 7.22216,-3.69693 0.61325,0 12.42497,-2.76154 12.66466,-2.96096 0.0665,-0.0553 -0.38004,-1.0064 -0.99239,-2.11345 -0.61235,-1.10704 -1.46471,-3.24735 -1.89414,-4.75624 -0.42944,-1.5089 -1.24888,-3.67453 -1.821,-4.81255 -0.5721,-1.138 -1.50351,-3.59445 -2.06977,-5.45874 -0.6489,-2.13639 -1.90707,-4.67834 -3.40292,-6.87513 -1.30534,-1.91702 -2.69311,-4.39877 -3.08393,-5.51501 -0.39083,-1.11623 -1.95541,-5.42451 -3.47683,-9.57397 -3.03206,-8.26944 -5.82582,-18.26043 -6.73597,-24.08905 -0.6113,-3.91464 -2.03344,-9.5123 -3.26572,-12.85398 -0.68493,-1.85743 -0.80127,-1.94816 -2.14023,-1.66894 -14.64417,3.05376 -51.21761,13.50257 -52.79954,15.0845 -0.29273,0.29273 1.5458,4.28376 4.32547,9.38961 1.42659,2.62045 3.09576,5.76934 3.70925,6.99756 0.61351,1.22821 2.07905,3.65823 3.25675,5.40003 1.1777,1.74182 2.34702,3.58184 2.5985,4.08896 0.6582,1.32724 8.99504,0.0735 14.32794,-2.15474 0.85719,-0.35814 1.89652,-0.65119 2.30962,-0.65119 0.41311,0 1.5189,-0.4115 2.45732,-0.91448 2.11114,-1.13151 2.29841,-1.13503 1.94986,-0.0368 -0.19641,0.6188 -0.0156,0.96087 0.61092,1.15992 1.13067,0.35885 2.34943,2.89987 2.34943,4.89835 0,0.84667 0.47645,2.25588 1.05881,3.13158 1.53145,2.30292 2.09078,3.92847 2.59315,7.53629 0.24512,1.76036 0.6273,4.07271 0.8493,5.13857 0.86904,4.17248 -0.32109,5.6614 -4.72177,5.90723 -1.63445,0.0913 -4.14854,0.47251 -5.58683,0.84714 -1.43831,0.37463 -3.03482,0.68191 -3.54782,0.68286 -0.51301,9.2e-4 -1.64453,0.43563 -2.51451,0.96598 -0.86997,0.53036 -3.35388,1.64054 -5.51978,2.46708 -4.71969,1.80109 -10.32294,4.56098 -15.30319,7.53762 -2.01186,1.20246 -4.77698,2.7749 -6.14473,3.49433 -1.47065,0.77356 -2.79314,1.86855 -3.23646,2.67976 -1.7175,3.14274 -4.58936,3.16059 -6.43058,0.0399 -0.72296,-1.22533 -1.318,-1.63435 -2.72291,-1.87171 -1.3724,-0.23186 -2.26753,-0.82621 -3.78313,-2.51193 -1.3702,-1.52399 -2.5598,-2.36289 -3.83926,-2.70741 -1.71228,-0.46107 -5.93001,-3.35538 -8.93607,-6.13215 -1.77203,-1.63687 -1.71745,-3.86471 0.14672,-5.98783 0.85272,-0.97121 1.48776,-2.27394 1.6172,-3.31755 0.3779,-3.04666 1.51061,-4.33161 5.68632,-6.45056 2.12658,-1.07913 5.72652,-2.98014 7.99987,-4.2245 4.76216,-2.6066 6.60971,-3.28848 14.15621,-5.22459 6.42009,-1.64714 7.00704,-2.67091 4.5417,-7.92153 -1.21522,-2.58816 -3.37814,-7.90978 -6.45215,-15.8748 -0.8735,-2.26334 -1.72691,-4.25666 -1.89646,-4.4296 -0.70128,-0.71531 -41.94775,15.37694 -61.34975,23.93552 -2.89205,1.27574 -12.97418,5.66418 -22.40474,9.75209 -22.89384,9.9239 -24.37813,10.64103 -23.99059,11.59098 0.17039,0.4179 1.11522,2.88172 2.09944,5.47515 3.20935,8.45681 4.381,10.64937 7.05059,13.19407 1.75528,1.67316 2.49509,2.72608 2.49509,3.55115 0,1.47168 -0.22959,1.51561 3.69191,-0.70657 3.9027,-2.21151 7.18833,-3.40628 11.34887,-4.12685 1.66109,-0.28769 3.73729,-0.9058 4.61374,-1.37357 0.87647,-0.46779 1.82863,-0.85051 2.11591,-0.85051 0.28729,0 0.78573,-0.31736 1.10763,-0.70524 0.38128,-0.45943 0.74111,-0.54943 1.03233,-0.25822 0.71077,0.71077 -2.0607,3.79189 -4.55323,5.06196 -1.21588,0.61954 -3.0337,1.76226 -4.03964,2.53938 -1.00592,0.77709 -3.68077,2.52474 -5.94411,3.88363 -2.26334,1.35888 -5.04106,3.11084 -6.17274,3.89323 -1.13166,0.7824 -3.4404,1.99489 -5.13053,2.69443 -1.69012,0.69955 -4.95323,2.38298 -7.25132,3.74098 -2.29809,1.35798 -4.29006,2.46907 -4.42657,2.46907 -0.2327,0 -7.42864,4.04246 -7.84622,4.40775 -0.10576,0.0926 0.22651,0.6304 0.73843,1.19523 0.51191,0.56484 1.24713,1.95291 1.63382,3.08457 2.34384,6.85925 5.95217,8.10119 12.35776,4.25336 6.8684,-4.12584 10.0756,-5.52253 19.75528,-8.60318 3.77224,-1.20055 7.47587,-2.63671 8.23033,-3.19145 0.75444,-0.55475 2.57052,-1.68095 4.03573,-2.5027 3.69999,-2.07506 3.73097,-2.99998 0.2206,-6.58522 -2.41001,-2.46141 -1.2311,-6.2328 1.94832,-6.2328 2.56441,0 6.36944,3.22139 6.36944,5.39245 0,0.48411 0.61726,2.03692 1.37172,3.45072 1.46573,2.74674 1.67931,4.20689 0.78561,5.37088 -0.78891,1.02754 -2.57394,1.90278 -3.30698,1.62149 -0.34152,-0.13099 -1.09703,0.13082 -1.67892,0.5819 -2.51786,1.95198 -10.10715,5.55023 -14.09954,6.68492 -5.91105,1.67999 -7.33045,2.15089 -12.22519,4.05595 -2.32855,0.90629 -4.77073,1.64779 -5.42707,1.64779 -1.49015,0 -5.68388,2.51674 -8.40017,5.04108 -2.46746,2.2931 -3.45632,2.71413 -5.22418,2.22431 z m 114.56497,-50.24913 c 11.0536,-6.69763 29.45062,-14.62846 33.93342,-14.62846 1.2564,0 0.64413,-2.80878 -1.24588,-5.71549 -2.18083,-3.35401 -3.02745,-5.85001 -3.02745,-8.92543 0,-3.33984 0.71927,-3.40824 -7.77308,0.73915 -7.70627,3.76346 -11.85475,5.44562 -21.82989,8.85165 -3.5818,1.22303 -8.10846,3.09552 -10.05927,4.16108 -1.9508,1.06557 -5.14154,2.72712 -7.09053,3.69233 -2.93621,1.45411 -3.5436,1.94149 -3.5436,2.84344 0,0.5987 -0.41343,1.61413 -0.91872,2.25652 -1.06543,1.35445 1.00656,3.63691 3.8584,4.25033 2.34726,0.5049 3.86587,1.50307 5.08149,3.33999 1.05344,1.59186 1.34268,1.7509 3.18436,1.7509 1.1141,0 2.49508,0.31836 3.06883,0.70747 0.97302,0.65989 1.12411,0.63126 2.24677,-0.42591 0.66196,-0.62336 2.5138,-1.92726 4.11515,-2.89757 z m -83.95188,-29.62906 c -0.14084,-0.14084 -0.50974,-2.9e-4 -0.81989,0.31219 -0.44821,0.45158 -0.39569,0.5041 0.25596,0.25596 0.45094,-0.17178 0.70471,-0.42737 0.56393,-0.56815 z m 5.1422,-1.92925 c 1.82895,-0.82029 3.25343,-1.56336 3.16554,-1.65125 -0.26528,-0.26527 -5.67594,1.97476 -6.80772,2.81839 -1.29093,0.96228 -0.64196,0.75432 3.64218,-1.16714 z m 5.13359,-2.27421 c 0.37722,-0.24379 0.48011,-0.44324 0.22863,-0.44324 -0.2515,0 -0.76588,0.19945 -1.1431,0.44324 -0.37722,0.24377 -0.48012,0.44323 -0.22862,0.44323 0.25148,0 0.76587,-0.19946 1.14309,-0.44323 z m 166.9585,13.01139 c -1.27544,-1.62147 -1.34656,-6.29154 -0.14758,-9.69601 0.46082,-1.30857 0.77844,-3.28858 0.71104,-4.43263 -0.22066,-3.74598 -0.7937,-4.51336 -8.56918,-11.47518 -2.81193,-2.51767 -0.87794,-5.19031 4.62828,-6.396 1.94705,-0.42635 4.67175,-1.15114 6.0549,-1.61064 1.38316,-0.4595 4.57241,-1.06157 7.08723,-1.33793 2.5148,-0.27637 5.90982,-0.92873 7.54444,-1.44968 1.73472,-0.55285 5.16121,-1.10107 8.23032,-1.3168 13.35129,-0.93849 21.6335,-2.66831 29.62787,-6.1881 0.8292,-0.36508 2.45433,-0.87593 3.61138,-1.13524 1.15707,-0.25929 2.67086,-0.87526 3.36398,-1.36882 1.62045,-1.15387 3.46128,-1.15971 4.07501,-0.0121 1.03399,1.93204 -0.0439,3.26714 -3.0035,3.72042 -1.23128,0.18857 -3.67897,0.8999 -5.43934,1.58075 -9.67802,3.74307 -19.91814,7.10363 -26.29129,8.62817 -1.38315,0.33087 -4.26376,1.13718 -6.40135,1.79178 -6.66775,2.0419 -13.5052,3.51302 -16.32764,3.51302 -2.79852,0 -7.19924,1.05521 -7.68611,1.84297 -0.15207,0.2461 0.7677,1.46461 2.04401,2.70777 3.71834,3.62177 5.06875,8.29564 3.70444,12.82135 -0.91355,3.03045 -0.81783,3.06976 3.86224,1.5861 7.71391,-2.44546 14.97638,-4.39898 19.43269,-5.22714 2.89204,-0.53747 7.0072,-1.50857 9.1448,-2.15801 7.14386,-2.17042 12.09769,-3.32945 14.25898,-3.33612 4.1233,-0.0121 5.40233,-1.93626 5.40233,-8.12468 0,-3.13441 3.40194,-4.73454 5.75521,-2.70699 1.31277,1.13108 1.33185,1.21584 1.32138,5.87205 -0.0207,9.23442 -3.01946,12.19813 -12.39714,12.25256 -1.7136,0.0104 -4.11634,0.45155 -6.17273,1.13452 -4.85137,1.61122 -11.8118,3.30102 -19.78953,4.80441 -3.82697,0.72117 -8.17887,1.82024 -9.67087,2.44236 -1.49199,0.62213 -3.74151,1.36016 -4.99891,1.6401 -1.25742,0.27993 -3.72652,0.94124 -5.48688,1.46957 -5.30111,1.591 -6.33875,1.6139 -7.47845,0.16504 z M 261.68625,-382.68771 c -0.14465,-0.23411 -0.0539,-0.55489 0.20164,-0.71285 0.25557,-0.15795 0.4647,0.0335 0.4647,0.42565 0,0.80316 -0.27438,0.92141 -0.66634,0.2872 z"
       id="path984"
       inkscape:export-filename="C:\Users\neequ\OneDrive\Desktop\Computharp Logo.png"
       inkscape:export-xdpi="100"
       inkscape:export-ydpi="100" />
  </g>
</svg>
